<!-- Generator: Adobe Illustrator 24.3.0, SVG Export Plug-In  -->
<svg version="1.1" xmlns="http://www.w3.org/2000/svg" xmlns:xlink="http://www.w3.org/1999/xlink" x="0px" y="0px" width="865.9px"
	 height="470.2px" viewBox="0 0 865.9 470.2" style="overflow:visible;enable-background:new 0 0 865.9 470.2;"
	 xml:space="preserve">
<style type="text/css">
	.st0{fill:#4F4B5A;}
	.st1{fill:#F05425;}
</style>
<defs>
</defs>
<g>
	<g>
		<path class="st0" d="M207.2,224l-59.6,0.1l22.1-89.8l-28.4,0l-22.1,89.8l-59.6,0.1l55-223.3l59.6-0.1l-19.4,79l28.4,0l19.4-79
			l59.6-0.1L207.2,224z"/>
		<path class="st0" d="M328.4,223.8l-59.6,0.1l23.3-94.6l-23-128.7l62.1-0.1l2.6,33.1c0.5,6.5,0.9,12.7,1.1,18.6
			c0.2,6,0.3,11.7,0.3,17.2c4.2-8.2,7.8-15.3,10.9-21.2c3.1-5.9,5.7-10.7,7.8-14.4l19.1-33.4l61.7-0.1l-83,128.8L328.4,223.8z"/>
		<path class="st0" d="M452.3,223.7l-59.6,0.1l55-223.3l57.7-0.1c28.8,0,48.6,5.9,59.6,17.7c12.9,14,16.3,33.4,10.2,58.3
			c-6.7,27.1-20.4,47.3-41.1,60.6c-14.1,9-32.3,13.5-54.6,13.5l-9.3,0L452.3,223.7z M482.6,100.3l2.7,0.1c7.2,0,13.5-2.3,18.9-6.7
			c5.4-4.5,9-10.6,11-18.4c1.9-7.7,1.3-14-1.7-18.8c-3-4.9-7.7-7.4-14.2-7.4l-4.1,0L482.6,100.3z"/>
		<path class="st0" d="M332.2,466.2l55-223.3l127.5-0.2l-12.9,52.5l-67.9,0.1l-8,32.5l62.7-0.1L476,378.2l-62.7,0.1l-8.4,34.1
			l67.9-0.1L459.7,466L332.2,466.2z"/>
		<path class="st0" d="M836.5,223.2l-64.4,0.1l-9.8-79.5c0-1.3,0-3.1-0.2-5.3c-0.2-2.2-0.4-4.9-0.7-8l-3.2,14.8l-19.2,78.1
			l-59.3,0.1l55-223.3l61-0.1c26.9,0,45.6,5.3,56.3,16c13.6,13.7,17.3,33.1,11,58.4c-6.6,27-22.6,45.7-47.9,56L836.5,223.2z
			 M768.7,103.4l4,0c6.9,0,13.2-2.7,19.1-8c5.9-5.3,9.8-12.1,11.8-20.3c4.1-16.7-2.5-25-19.7-25l-2.1,0L768.7,103.4z"/>
		<path class="st0" d="M59.6,466.5L0,466.6l55-223.3l147.5-0.2l-12.9,52.5l-88,0.1l-8,32.5l75.1-0.1l-12.4,50.5l-75.1,0.1
			L59.6,466.5z"/>
		<path class="st0" d="M308.6,243l59.6-0.1l-38.9,157.9c-3.3,13.2-7.9,23.9-14,32.1c-6.1,8.6-14.7,16.4-25.7,23.3
			c-14.8,9.3-31.3,13.9-49.3,13.9c-20.4,0-36.2-5.1-47.5-15.3c-14.3-13-17.9-33.8-10.9-62.5l36.8-149.4l59.6-0.1l-35.5,144.1
			c-2.4,9.7-2.9,16.6-1.6,20.7c1.3,4,4.8,6.1,10.3,6.1c5.7,0,10.1-1.9,13.2-5.7c3.2-4,6-10.9,8.4-21L308.6,243z"/>
		<path class="st0" d="M602,465.9L488.7,466l55-223.3l59.6-0.1l-41.8,169.7l53.7-0.1L602,465.9z"/>
		<path class="st1" d="M694.3,436c-2.2,9.1-7.4,16.8-15.6,23.3c-8,6.5-16.6,9.7-25.8,9.7c-9.1,0-16.3-3.3-21.4-9.8
			c-4.9-6.6-6.2-14.7-3.9-24.1c2.3-9.3,7.5-17.2,15.5-23.7c8.1-6.6,16.7-9.9,25.8-9.9c9.4,0,16.6,3.4,21.5,10.1
			C695.4,418.2,696.7,426.3,694.3,436z"/>
	</g>
	<path class="st0" d="M548.4,223.6l55-223.3l122.3-0.2l-12.9,52.5L650,52.7l-8,32.5l57.5-0.1L687,135.6l-57.5,0.1l-8.4,34.1
		l62.7-0.1l-13.2,53.7L548.4,223.6z"/>
</g>
</svg>
