<svg version="1.1" xmlns="http://www.w3.org/2000/svg" xmlns:xlink="http://www.w3.org/1999/xlink" x="0px" y="0px"
	 viewBox="0 0 171.4 230.1" style="overflow:visible;enable-background:new 0 0 171.4 230.1;"
	 xml:space="preserve">
<style type="text/css">
	.st0{fill:#282227;}
</style>
<g>
	<path class="st0" d="M48.3,72.2H28.8v-29h-9.3v29H0V0h19.5v25.5h9.3V0h19.5V72.2z"/>
	<path class="st0" d="M88.8,72.2H69.3V41.6L51.4,0h20.3l3.5,10.7c0.7,2.1,1.3,4.1,1.8,6c0.5,1.9,1,3.8,1.5,5.6
		c0.7-2.6,1.3-4.9,1.9-6.8c0.5-1.9,1-3.5,1.4-4.6L85.4,0h20.2L88.8,41.6V72.2z"/>
	<path class="st0" d="M128.2,72.2h-19.5V0h18.9c9.4,0,14.4,1.9,18.9,5.7c5.4,4.5,8,10.8,8,18.8c0,8.8-2.9,15.3-8.6,19.6
		c-3.9,2.9-7.5,4.3-14.8,4.3h-3V72.2z M128.2,32.3l0.9,0c2.4,0,4.3-0.7,5.7-2.2c1.4-1.4,2.1-3.4,2.1-6c0-2.5-0.7-4.5-2.1-6.1
		c-1.4-1.6-3.1-2.4-5.2-2.4h-1.4V32.3z"/>
	<path class="st0" d="M0,150.5V78.3h48.3v17H19.5v10.5h24v16.3h-24v11h28.8v17.3H0z"/>
	<path class="st0" d="M54.7,228.8v-72.2H103v17H74.2v10.5h24v16.3h-24v11H103v17.3H54.7z"/>
	<path class="st0" d="M106,150.5H84.9l-9.6-25.7c-0.1-0.4-0.3-1-0.5-1.7s-0.5-1.6-0.9-2.6l0.1,4.8v25.2H54.7V78.3h20
		c8.8,0,15.4,1.7,19.7,5.2c5.5,4.4,8.3,10.7,8.3,18.9c0,8.7-3.7,14.8-11.2,18.1L106,150.5z M74.2,111.8h1.3c2.2,0,4.1-0.9,5.6-2.6
		c1.5-1.7,2.2-3.9,2.2-6.5c0-5.4-2.8-8.1-8.5-8.1h-0.7V111.8z"/>
	<path class="st0" d="M128.2,150.5h-19.5V78.3h34.4v17h-15v10.5h13.9v16.3h-13.9V150.5z"/>
	<path class="st0" d="M29.4,156.7h19.5v51c0,4.3-0.7,7.7-2,10.4c-1.3,2.8-3.5,5.3-6.5,7.5c-4.1,3-9.1,4.5-15,4.5
		c-6.7,0-12.3-1.7-16.8-5C2.9,220.9,0,214.2,0,204.9v-48.3h19.5v46.5c0,3.1,0.4,5.4,1.1,6.7c0.8,1.3,2,2,3.9,2
		c1.9,0,3.2-0.6,3.9-1.8c0.7-1.3,1.1-3.5,1.1-6.8V156.7z"/>
	<path class="st0" d="M142.8,228.8h-34.1v-72.2h19.5v54.8h14.6V228.8z"/>
	<path class="st0" d="M171.4,219.2c0,2.9-1.1,5.4-3.2,7.5c-2.1,2.1-4.6,3.1-7.7,3.1c-3,0-5.6-1.1-7.8-3.2c-2.2-2.2-3.2-4.8-3.2-7.8
		c0-3,1.1-5.5,3.2-7.7c2.1-2.1,4.7-3.2,7.7-3.2c3.1,0,5.7,1.1,7.9,3.3C170.3,213.5,171.4,216.1,171.4,219.2z"/>
</g>
</svg>
