<!-- Generator: Adobe Illustrator 24.3.0, SVG Export Plug-In  -->
<svg version="1.1" xmlns="http://www.w3.org/2000/svg" xmlns:xlink="http://www.w3.org/1999/xlink" x="0px" y="0px" width="254.2px"
	 height="151.8px" viewBox="0 0 254.2 151.8" style="overflow:visible;enable-background:new 0 0 254.2 151.8;"
	 xml:space="preserve">
<style type="text/css">
	.st0{fill:#282228;}
</style>
<defs>
</defs>
<g>
	<path class="st0" d="M48.3,72.2H28.8v-29h-9.3v29H0V0h19.5v25.5h9.3V0h19.5V72.2z"/>
	<path class="st0" d="M88.3,72.2H68.8V41.6L50.9,0h20.3l3.5,10.7c0.7,2.1,1.3,4.1,1.8,6c0.5,1.9,1,3.8,1.5,5.6
		c0.7-2.6,1.3-4.9,1.9-6.8c0.5-1.9,1-3.5,1.4-4.6L84.9,0h20.2L88.3,41.6V72.2z"/>
	<path class="st0" d="M128.5,72.2H109V0h18.9c9.4,0,16.4,1.9,20.9,5.7c5.4,4.5,8,10.8,8,18.8c0,8.8-2.9,15.3-8.6,19.6
		c-3.9,2.9-9.5,4.3-16.8,4.3h-3V72.2z M128.5,32.3l0.9,0c2.4,0,4.3-0.7,5.7-2.2c1.4-1.4,2.1-3.4,2.1-6c0-2.5-0.7-4.5-2.1-6.1
		c-1.4-1.6-3.1-2.4-5.2-2.4h-1.4V32.3z"/>
	<path class="st0" d="M108.7,150.5V78.3h41.7v17h-22.2v10.5h20.5v16.3h-20.5v11h22.2v17.3H108.7z"/>
	<path class="st0" d="M254.2,72.2h-21.1l-9.6-25.7c-0.1-0.4-0.3-1-0.5-1.7c-0.2-0.7-0.5-1.6-0.9-2.6l0.1,4.8v25.2h-19.4V0h20
		c8.8,0,15.4,1.7,19.7,5.2c5.5,4.4,8.3,10.7,8.3,18.9c0,8.7-3.7,14.8-11.2,18.1L254.2,72.2z M222.4,33.4h1.3c2.2,0,4.1-0.9,5.6-2.6
		c1.5-1.7,2.2-3.9,2.2-6.5c0-5.4-2.8-8.1-8.5-8.1h-0.7V33.4z"/>
	<path class="st0" d="M19.5,150.5H0V78.3h48.3v17H19.5v10.5h24.6v16.3H19.5V150.5z"/>
	<path class="st0" d="M83,78.3h19.5v51c0,4.3-0.7,7.7-2,10.4c-1.3,2.8-3.5,5.3-6.5,7.5c-4.1,3-9.1,4.5-15,4.5
		c-6.7,0-12.3-1.7-16.8-5c-5.7-4.2-8.6-10.9-8.6-20.2V78.3H73v46.5c0,3.1,0.4,5.4,1.1,6.7c0.8,1.3,2,2,3.9,2c1.9,0,3.2-0.6,3.9-1.8
		c0.7-1.3,1.1-3.5,1.1-6.8V78.3z"/>
	<path class="st0" d="M197,150.5h-37.1V78.3h19.5v54.8H197V150.5z"/>
	<path class="st0" d="M224.8,140.9c0,2.9-1.1,5.4-3.2,7.5c-2.1,2.1-4.6,3.1-7.7,3.1c-3,0-5.6-1.1-7.8-3.2c-2.1-2.1-3.2-4.8-3.2-7.8
		c0-3,1.1-5.5,3.2-7.7c2.1-2.1,4.7-3.2,7.7-3.2c3.1,0,5.7,1.1,7.9,3.3C223.7,135.1,224.8,137.8,224.8,140.9z"/>
	<path class="st0" d="M159.9,72.2V0h40v17h-20.5v10.5h18.8v16.3h-18.8v11h20.5v17.3H159.9z"/>
</g>
</svg>
