<!-- Generator: Adobe Illustrator 24.3.0, SVG Export Plug-In  -->
<svg version="1.1" xmlns="http://www.w3.org/2000/svg" xmlns:xlink="http://www.w3.org/1999/xlink" x="0px" y="0px" width="152.6px"
	 height="254.2px" viewBox="0 0 152.6 254.2" style="overflow:visible;enable-background:new 0 0 152.6 254.2;"
	 xml:space="preserve">
<style type="text/css">
	.st0{fill:#282227;}
</style>
<defs>
</defs>
<path class="st0" d="M0,48.3V28.8h29v-9.3H0V0h72.2v19.5H46.6v9.3h25.5v19.5H0z"/>
<path class="st0" d="M0,88.3V68.8h30.6l41.6-17.9v20.3l-10.7,3.5c-2.1,0.7-4.1,1.3-6,1.8c-1.9,0.5-3.8,1-5.6,1.5
	c2.6,0.7,4.9,1.3,6.8,1.9c1.9,0.5,3.5,1,4.6,1.4l10.8,3.6v20.2L30.6,88.3H0z"/>
<path class="st0" d="M0,128.5V109h72.2v18.9c0,9.4-1.9,16.4-5.7,20.9c-4.5,5.4-10.8,8-18.8,8c-8.8,0-15.3-2.9-19.6-8.6
	c-2.9-3.9-4.3-9.5-4.3-16.8v-3H0z M39.9,128.5l0,0.9c0,2.4,0.7,4.3,2.2,5.7c1.4,1.4,3.4,2.1,6,2.1c2.5,0,4.5-0.7,6.1-2.1
	c1.6-1.4,2.4-3.1,2.4-5.2v-1.4H39.9z"/>
<path class="st0" d="M151.3,140.8H79.1V99.1h17v22.2h10.5v-20.5h16.3v20.5h11V99.1h17.3V140.8z"/>
<path class="st0" d="M0,254.2v-21.1l25.7-9.6c0.4-0.1,1-0.3,1.7-0.5c0.7-0.2,1.6-0.5,2.6-0.9l-4.8,0.1H0v-19.4h72.2v20
	c0,8.8-1.7,15.4-5.2,19.7c-4.4,5.5-10.7,8.3-18.9,8.3c-8.7,0-14.8-3.7-18.1-11.2L0,254.2z M38.7,222.4v1.3c0,2.2,0.9,4.1,2.6,5.6
	c1.7,1.5,3.9,2.2,6.5,2.2c5.4,0,8.1-2.8,8.1-8.5v-0.7H38.7z"/>
<path class="st0" d="M151.3,230v19.5H79.1v-48.3h17V230h10.5v-24.6h16.3V230H151.3z"/>
<path class="st0" d="M79.1,166.5V147h51c4.3,0,7.7,0.7,10.4,2c2.8,1.3,5.3,3.5,7.5,6.5c3,4.1,4.5,9.1,4.5,15c0,6.7-1.7,12.3-5,16.8
	c-4.2,5.7-10.9,8.6-20.2,8.6H79.1v-19.5h46.5c3.1,0,5.4-0.4,6.7-1.1c1.3-0.8,2-2,2-3.9c0-1.9-0.6-3.2-1.8-3.9
	c-1.3-0.7-3.5-1.1-6.8-1.1H79.1z"/>
<path class="st0" d="M151.3,52.5v37.1H79.1V70.1H134V52.5H151.3z"/>
<path class="st0" d="M141.7,24.7c2.9,0,5.4,1.1,7.5,3.2c2.1,2.1,3.1,4.6,3.1,7.7c0,3-1.1,5.6-3.2,7.8c-2.1,2.1-4.8,3.2-7.8,3.2
	c-3,0-5.5-1.1-7.7-3.2c-2.1-2.1-3.2-4.7-3.2-7.7c0-3.1,1.1-5.7,3.3-7.9C135.9,25.8,138.6,24.7,141.7,24.7z"/>
<path class="st0" d="M0,159.9h72.2v40h-17v-20.5H44.7v18.8H28.4v-18.8h-11v20.5H0V159.9z"/>
</svg>
