<!-- Generator: Adobe Illustrator 24.3.0, SVG Export Plug-In  -->
<svg version="1.1" xmlns="http://www.w3.org/2000/svg" xmlns:xlink="http://www.w3.org/1999/xlink" x="0px" y="0px" width="112.9px"
	 height="127.6px" viewBox="0 0 112.9 127.6" style="overflow:visible;enable-background:new 0 0 112.9 127.6;"
	 xml:space="preserve">
<style type="text/css">
	.st0{fill:#FFFFFF;}
</style>
<defs>
</defs>
<g>
	<g>
		<path class="st0" d="M23.1,13.2v41.9H8.2V13.2H0V0h31.3v13.2H23.1z"/>
		<path class="st0" d="M72.5,39c0,5.5-1.2,9.2-5.5,12.8c-3.6,3.1-7.9,4.3-12.5,4.3c-5,0-10.2-1.4-14-4.8c-4.3-3.8-5.4-8.8-5.4-14.4
			V0H50v35.6c0,2.8,0.1,6.5,3.8,6.5c3.8,0,3.8-3.7,3.8-6.5V0h14.9V39z"/>
		<path class="st0" d="M28.4,126.8c-3.9-10.5-8.2-20.9-11.2-31.8c0.4,5.9,0.9,11.8,0.9,17.7v14.1H3.9V71.7h14.2L25.6,91
			c1.7,4.5,3.1,9.3,4.5,13.9c-0.8-6.8-1.7-13.5-1.7-20.3V71.7h14.2v55.2H28.4z"/>
		<path class="st0" d="M74.8,126.8l-9.9-26.4l0.4,26.4H50.4V71.7h14.9l-0.4,24.6l8.8-24.6h15.7L77.6,98.3l13.2,28.5H74.8z"/>
		<path class="st0" d="M104.6,127.6c-4.5,0-8.4-3.8-8.4-8.4c0-4.6,3.7-8.4,8.4-8.4c4.6,0,8.4,3.8,8.4,8.4S109.2,127.6,104.6,127.6z
			 M97.5,107V69.8H112V107H97.5z"/>
	</g>
</g>
</svg>
