<!-- Generator: Adobe Illustrator 24.3.0, SVG Export Plug-In  -->
<svg version="1.1" xmlns="http://www.w3.org/2000/svg" xmlns:xlink="http://www.w3.org/1999/xlink" x="0px" y="0px" width="169.7px"
	 height="200.5px" viewBox="0 0 169.7 200.5" style="overflow:visible;enable-background:new 0 0 169.7 200.5;"
	 xml:space="preserve">
<style type="text/css">
	.st0{fill:#FFFFFF;}
</style>
<defs>
</defs>
<g>
	<path class="st0" d="M27.5,19.7c-1.9-2.9-5-6-8.8-6c-1.9,0-3.9,1.2-3.9,3.3c0,5.6,14.2,7.1,14.2,21.5c0,10.3-6.9,18.7-17.5,18.7
		c-3.9,0-7.7-0.9-11.2-2.4V37.5c2.2,3.1,5.5,6,9.4,6c2.2,0,4.4-1.2,4.4-3.6C14.1,34,0,32.1,0,18.1C0,8.5,6.9,0,16.8,0
		c3.7,0,7.4,1.1,10.7,2.8V19.7z"/>
	<path class="st0" d="M76,56.1L74.8,31c-0.2-3.3-0.2-6.7-0.3-10c-0.3,3.6-0.8,7.1-1.5,10.6l-4.6,24.6H56.2l-4.3-26.5
		c-0.5-2.8-0.7-5.7-1-8.6c-0.1,4.1,0,8.2-0.2,12.2l-1.3,22.9h-16L39.9,1h18.5c1.7,9.8,3.6,19.4,4.3,29.4C63.7,20.4,66,10.7,67.8,1
		h18.4l5.4,55.2H76z"/>
	<path class="st0" d="M122.5,56.1l-1.2-7h-10l-1.2,7H94.7L108,1h18.2l11.7,55.2H122.5z M119.6,37.4c-1.2-7.7-2.2-15.4-2.8-23.2
		c-0.3,2.6-0.6,5.2-0.9,7.8c-0.7,5.1-1.6,10.3-2.6,15.4H119.6z"/>
	<path class="st0" d="M168.2,19.7c-1.9-2.9-5-6-8.8-6c-1.9,0-3.9,1.2-3.9,3.3c0,5.6,14.2,7.1,14.2,21.5c0,10.3-6.9,18.7-17.5,18.7
		c-3.9,0-7.7-0.9-11.2-2.4V37.5c2.2,3.1,5.5,6,9.4,6c2.1,0,4.4-1.2,4.4-3.6c0-5.9-14.1-7.8-14.1-21.7c0-9.6,6.9-18.1,16.8-18.1
		c3.7,0,7.4,1.1,10.7,2.8V19.7z"/>
	<path class="st0" d="M23.4,127.8v-22.2h-7.1v22.2H1.4V72.6h14.9v19.5h7.1V72.6h14.9v55.2H23.4z"/>
	<path class="st0" d="M69,127.8c-2.8-7.6-5.7-15.2-8.4-22.9c0.2,2.4,0.2,4.9,0.2,7.3v15.6H46V72.6h15.2c3.8,0,7.9,0.4,11.5,1.9
		c6.6,2.8,9.9,9.6,9.9,16.5c0,6.4-2.6,11.1-8.5,13.8l11.1,22.9H69z M61.8,98.2c3.8,0,6-3.5,6-6.9c0-4.5-2.7-6.2-6.9-6.2v13.1H61.8z"
		/>
	<path class="st0" d="M109.1,128.8c-5.9,0-11.3-2.9-15-7.4c-4.8-5.8-6.2-14.5-6.2-21.7c0-13,6-28,21.2-28c15,0,20.8,15.2,20.8,28
		C129.7,112.6,124.5,128.8,109.1,128.8z M108.9,85.5c-5.1,0-5.6,11.1-5.6,14.6c0,3.6,0.3,14.6,5.5,14.6c5.1,0,5.5-11,5.5-14.6
		S114,85.5,108.9,85.5z"/>
	<path class="st0" d="M166.2,126.8c-3.2,1.4-5.3,2-8.8,2c-15.9,0-22.7-14.3-22.7-28.4c0-15.1,7.8-28.8,24.4-28.8
		c3,0,4.6,0.2,7.4,1.4v15.7c-2-2.1-3.9-3.3-6.9-3.3c-7.9,0-9.7,8.4-9.7,14.7c0,6.1,1.8,14.2,9.4,14.2c3.2,0,5.5-1.5,7.8-3.6
		L166.2,126.8z"/>
	<path class="st0" d="M25.8,199.5l-9.9-26.4l0.4,26.4H1.4v-55.2h14.9l-0.4,24.6l8.8-24.6h15.7l-11.7,26.6l13.2,28.5H25.8z"/>
	<path class="st0" d="M46.1,199.5v-55.2h27.6v13H61v8h11.4v12.5H61v8.4h12.7v13.2H46.1z"/>
	<path class="st0" d="M101.9,157.5v41.9H87v-41.9h-8.2v-13.2H110v13.2H101.9z"/>
	<path class="st0" d="M141.1,163c-1.9-2.9-5-6-8.8-6c-1.9,0-3.9,1.2-3.9,3.3c0,5.6,14.2,7.1,14.2,21.5c0,10.3-6.9,18.7-17.5,18.7
		c-3.9,0-7.7-0.9-11.2-2.4v-17.3c2.2,3.1,5.5,6,9.4,6c2.1,0,4.4-1.2,4.4-3.6c0-5.9-14.1-7.8-14.1-21.7c0-9.6,6.9-18.1,16.8-18.1
		c3.7,0,7.4,1.1,10.7,2.8V163z"/>
	<path class="st0" d="M156.8,200.3c-4.6,0-8.4-3.8-8.4-8.4c0-4.5,3.8-8.3,8.4-8.3c4.6,0,8.4,3.8,8.4,8.4
		C165.1,196.6,161.3,200.3,156.8,200.3z"/>
</g>
</svg>
