<!-- Generator: Adobe Illustrator 24.3.0, SVG Export Plug-In  -->
<svg version="1.1" xmlns="http://www.w3.org/2000/svg" xmlns:xlink="http://www.w3.org/1999/xlink" x="0px" y="0px" width="107.9px"
	 height="199.3px" viewBox="0 0 107.9 199.3" style="overflow:visible;enable-background:new 0 0 107.9 199.3;"
	 xml:space="preserve">
<style type="text/css">
	.st0{fill:#FFFFFF;}
</style>
<defs>
</defs>
<g>
	<g>
		<path class="st0" d="M23.1,55.2c-2.8-7.6-5.7-15.2-8.4-22.9c0.2,2.4,0.2,4.9,0.2,7.3v15.6H0V0h15.2c3.8,0,7.9,0.4,11.5,1.9
			c6.6,2.8,9.9,9.6,9.9,16.5c0,6.4-2.6,11.1-8.5,13.8l11.1,22.9H23.1z M15.9,25.5c3.8,0,6-3.5,6-6.9c0-4.5-2.7-6.2-6.9-6.2v13.1
			H15.9z"/>
		<path class="st0" d="M44.1,55.2V0h27.6v13H59v8h11.4v12.5H59v8.4h12.7v13.2H44.1z"/>
		<path class="st0" d="M78.3,39.8V28.7h17.9v11.1H78.3z"/>
		<path class="st0" d="M0,126.8V71.7h27.6v13H14.9v8h11.4v12.5H14.9v8.4h12.7v13.2H0z"/>
		<path class="st0" d="M58.5,126.8c-3.9-10.5-8.2-20.9-11.2-31.8c0.4,5.9,0.9,11.8,0.9,17.7v14.1H34V71.7h14.2L55.6,91
			c1.7,4.5,3.1,9.3,4.5,13.9c-0.8-6.8-1.7-13.5-1.7-20.3V71.7h14.2v55.2H58.5z"/>
		<path class="st0" d="M99.7,84.9v41.9H84.8V84.9h-8.2V71.7h31.3v13.2H99.7z"/>
		<path class="st0" d="M23.1,198.5c-2.8-7.6-5.7-15.2-8.4-22.9c0.2,2.4,0.2,4.9,0.2,7.3v15.6H0v-55.2h15.2c3.8,0,7.9,0.4,11.5,1.9
			c6.6,2.8,9.9,9.6,9.9,16.5c0,6.4-2.6,11.1-8.5,13.8l11.1,22.9H23.1z M15.9,168.9c3.8,0,6-3.5,6-6.9c0-4.5-2.7-6.2-6.9-6.2v13.1
			H15.9z"/>
		<path class="st0" d="M66.6,175.1v23.3H51.8v-23.3L38,143.3h15.5c1.8,5.6,3.8,11.2,5.2,17c1.6-5.7,3.3-11.4,5.2-17h15.4L66.6,175.1
			z"/>
		<path class="st0" d="M87.8,199.3c-4.6,0-8.4-3.8-8.4-8.4c0-4.5,3.8-8.3,8.4-8.3c4.6,0,8.4,3.8,8.4,8.4
			C96.2,195.6,92.4,199.3,87.8,199.3z"/>
	</g>
</g>
</svg>
